<svg width="31" height="40" viewBox="0 0 31 40" fill="none" xmlns="http://www.w3.org/2000/svg">
<path d="M15.5858 23.7536C12.197 23.7536 9.42871 20.5729 9.42871 16.6385C9.42871 12.7041 12.197 9.54187 15.5858 9.54187C18.9745 9.54187 21.7428 12.7225 21.7428 16.6569C21.7428 20.5913 18.9745 23.7536 15.5858 23.7536ZM15.5858 12.2997C13.5175 12.2997 11.8151 14.2485 11.8151 16.6569C11.8151 19.0654 13.5016 21.0142 15.5858 21.0142C17.6699 21.0142 19.3563 19.0654 19.3563 16.6569C19.3563 14.2485 17.654 12.2997 15.5858 12.2997Z" fill="#292D32"/>
<path d="M15.5838 39.5467C13.2292 39.5467 10.8587 38.5171 9.01319 36.4763C4.31987 31.2549 -0.866645 22.9264 1.09023 13.0168C2.85619 4.02637 9.64957 0 15.5838 0H15.5998C21.534 0 28.3274 4.02637 30.0934 13.0351C32.0343 22.9448 26.8478 31.2549 22.1545 36.4763C20.309 38.5171 17.9385 39.5467 15.5838 39.5467ZM15.5838 2.75779C10.9541 2.75779 5.00398 5.6075 3.42893 13.6235C1.7107 22.2829 6.41993 29.7473 10.6837 34.4723C13.4361 37.5427 17.7475 37.5427 20.4999 34.4723C24.7477 29.7473 29.457 22.2829 27.7706 13.6235C26.1796 5.6075 20.2135 2.75779 15.5838 2.75779Z" fill="#292D32"/>
</svg>
